<?xml version="1.0" encoding="UTF-8" standalone="no"?>
<!-- Created with Inkscape (http://www.inkscape.org/) -->

<svg
   version="1.1"
   id="svg1"
   width="539.82214"
   height="639.57697"
   viewBox="0 0 539.82214 639.57697"
   xmlns="http://www.w3.org/2000/svg"
   xmlns:svg="http://www.w3.org/2000/svg">
  <defs
     id="defs1" />
  <g
     id="g1"
     transform="translate(-274.17062,-165.30646)">
    <path
       style="fill:#000000"
       d="M 523.36474,804.28991 C 458.6772,797.99547 401.18485,771.71747 356.1229,727.84877 312.3986,685.28229 286.28148,633.94929 276.47757,571.30646 c -2.52284,-16.11989 -3.10472,-53.16854 -1.10498,-70.35439 7.60801,-65.38347 36.86205,-123.20554 84.49065,-166.99995 106.68951,-98.10082 280.92741,-93.86085 384.92832,9.36699 11.01144,10.9296 24.20121,26.06308 24.20121,27.76764 0,0.56981 -16.7625,12.6477 -37.25,26.83976 -20.4875,14.19206 -44.37957,30.8906 -53.09349,37.10786 l -15.84349,11.30411 -2.12024,-2.76601 c -4.88421,-6.37181 -15.77056,-16.97472 -23.94648,-23.32302 -58.36057,-45.31479 -138.82195,-40.22757 -190.74631,12.06005 -20.69346,20.83824 -33.39775,46.19252 -38.53244,76.90018 -2.68966,16.08535 -1.68181,40.84986 2.283,56.09678 16.01503,61.58678 66.46627,103.57812 129.26875,107.59236 31.23549,1.99652 66.15458,-9.0206 93.97811,-29.65049 8.31784,-6.1673 22.19172,-19.34459 28.09258,-26.68208 l 3.41001,-4.2402 54.5,36.08121 c 29.975,19.84467 54.65282,36.23059 54.8396,36.41314 0.62317,0.60909 -7.87669,12.45539 -15.26366,21.27305 -9.51554,11.35848 -30.82097,32.05523 -41.57594,40.38815 -19.27107,14.93116 -47.55572,31.00832 -70.04196,39.81226 -18.72427,7.33102 -40.73847,13.09469 -62.95804,16.48342 -12.46617,1.90122 -47.62074,2.77831 -60.62803,1.51263 z M 493.40751,529.30722 c 0.0469,-50.04959 0.15027,-90.99959 0.22973,-91 0.16367,-8.6e-4 83.91295,52.67265 118.85553,74.75333 12.65,7.9937 23.55307,15.03832 24.22905,15.65472 0.93873,0.85598 -1.06909,2.56457 -8.5,7.23323 -5.35098,3.36189 -27.27905,17.11652 -48.72905,30.56586 -36.20899,22.70335 -64.44298,40.52158 -79.06972,49.90021 -3.33834,2.14054 -6.30171,3.89189 -6.58526,3.89189 -0.28355,0 -0.47717,-40.94966 -0.43028,-90.99924 z M 297.00962,390.43352 c -0.0278,-2.26873 12.21407,-26.95505 18.37038,-37.04461 12.06348,-19.77084 32.97788,-45.2055 48.22861,-58.65234 46.49814,-40.99825 102.99047,-66.68441 163.54654,-74.36201 32.34771,-4.10121 58.61392,-3.67512 92.39669,1.49885 31.15083,4.77087 57.7299,12.78759 91.0621,27.46594 l 5.12117,2.25519 4.32769,-2.99805 4.3277,-2.99804 7.27919,5.78451 c 4.00355,3.18147 8.67579,6.60327 10.38276,7.604 2.79992,1.64148 3.04719,2.17586 2.52734,5.46183 l -0.57622,3.64233 11.2446,7.48914 c 6.18453,4.11903 15.96308,11.25498 21.73011,15.85767 11.87064,9.47401 37.01449,33.4862 37.01449,35.34857 0,0.67489 -5.84515,6.47825 -12.98922,12.89637 l -12.98922,11.66931 -17.26078,-17.36052 c -18.95961,-19.06917 -27.9596,-26.60313 -46.76078,-39.14384 -72.82412,-48.57494 -165.25613,-63.89998 -248.06822,-41.12921 -75.35549,20.72043 -135.14134,66.24065 -176.7665,134.58785 -1.17237,1.925 -2.13917,2.88218 -2.14843,2.12706 z M 758.54009,259.76895 c -20.87024,-5.72537 -37.38182,-22.23922 -42.20667,-42.21247 -2.34467,-9.70615 -2.084,-24.97384 0.56769,-33.25002 3.22623,-10.06939 3.1055,-10.00404 9.445,-5.11315 l 5.5102,4.25109 27.31823,-5.38264 c 23.68807,-4.66738 27.4563,-5.65901 28.35727,-7.46232 2.07398,-4.15114 3.69428,-5.29298 7.51082,-5.29298 7.44091,0 10.64655,8.55333 4.98961,13.31334 l -2.96054,2.49112 1.76571,28.21814 1.76571,28.21813 2.92693,2.12963 c 1.60981,1.1713 4.05998,3.10439 5.44482,4.29576 l 2.5179,2.16612 -2.19385,2.33856 c -3.6684,3.91038 -13.00232,9.01352 -20.07168,10.97379 -7.96914,2.20978 -23.21511,2.36771 -30.68715,0.3179 z m 37.19679,-55.46249 c -1.60125,-30.24597 -1.31104,-30.07576 -15.12968,-8.87391 -5.43706,8.34205 -9.93706,15.73646 -10,16.43204 -0.0629,0.69557 5.73557,6.0019 12.88557,11.79184 l 13,10.52717 0.24411,-3.18857 c 0.13426,-1.75371 -0.31574,-13.76357 -1,-26.68857 z m -6.80816,-25.5 c 0.11229,-3.35938 -1.76969,-3.22944 -26.68885,1.84263 -13.88909,2.827 -25.13909,5.47704 -25,5.88899 0.1391,0.41195 5.8779,5.21403 12.7529,10.67129 l 12.5,9.92229 13.20126,-13.6626 c 7.26069,-7.51443 13.2163,-14.1126 13.23469,-14.6626 z"
       id="path1" />
  </g>
</svg>
